<svg width="107" height="40" viewBox="0 0 107 40" fill="none" xmlns="http://www.w3.org/2000/svg">
<path d="M16.8 34L10.96 23.4H9.32V34H2.48V5.92H13.96C16.1733 5.92 18.0533 6.30667 19.6 7.08C21.1733 7.85333 22.3467 8.92 23.12 10.28C23.8933 11.6133 24.28 13.1067 24.28 14.76C24.28 16.6267 23.7467 18.2933 22.68 19.76C21.64 21.2267 20.0933 22.2667 18.04 22.88L24.52 34H16.8ZM9.32 18.56H13.56C14.8133 18.56 15.7467 18.2533 16.36 17.64C17 17.0267 17.32 16.16 17.32 15.04C17.32 13.9733 17 13.1333 16.36 12.52C15.7467 11.9067 14.8133 11.6 13.56 11.6H9.32V18.56ZM44.2538 34.28C41.6138 34.28 39.1871 33.6667 36.9738 32.44C34.7871 31.2133 33.0404 29.5067 31.7337 27.32C30.4537 25.1067 29.8137 22.6267 29.8137 19.88C29.8137 17.1333 30.4537 14.6667 31.7337 12.48C33.0404 10.2933 34.7871 8.58667 36.9738 7.36C39.1871 6.13333 41.6138 5.52 44.2538 5.52C46.8938 5.52 49.3071 6.13333 51.4938 7.36C53.7071 8.58667 55.4404 10.2933 56.6938 12.48C57.9738 14.6667 58.6138 17.1333 58.6138 19.88C58.6138 22.6267 57.9738 25.1067 56.6938 27.32C55.4138 29.5067 53.6804 31.2133 51.4938 32.44C49.3071 33.6667 46.8938 34.28 44.2538 34.28ZM44.2538 28.04C46.4938 28.04 48.2804 27.2933 49.6137 25.8C50.9738 24.3067 51.6538 22.3333 51.6538 19.88C51.6538 17.4 50.9738 15.4267 49.6137 13.96C48.2804 12.4667 46.4938 11.72 44.2538 11.72C41.9871 11.72 40.1738 12.4533 38.8138 13.92C37.4804 15.3867 36.8137 17.3733 36.8137 19.88C36.8137 22.36 37.4804 24.3467 38.8138 25.84C40.1738 27.3067 41.9871 28.04 44.2538 28.04ZM89.9391 34H83.0991L71.6591 16.68V34H64.8191V5.92H71.6591L83.0991 23.32V5.92H89.9391V34ZM100.737 9.36C99.5372 9.36 98.5505 9.01333 97.7772 8.32C97.0305 7.6 96.6572 6.72 96.6572 5.68C96.6572 4.61333 97.0305 3.73333 97.7772 3.04C98.5505 2.32 99.5372 1.96 100.737 1.96C101.911 1.96 102.871 2.32 103.617 3.04C104.391 3.73333 104.777 4.61333 104.777 5.68C104.777 6.72 104.391 7.6 103.617 8.32C102.871 9.01333 101.911 9.36 100.737 9.36ZM104.137 11.68V34H97.2972V11.68H104.137Z" fill="black"/>
<circle cx="100.5" cy="5.5" r="4.5" fill="#FCA61F"/>
</svg>
